<?xml version="1.0" encoding="UTF-8"?>
<svg width="21px" height="20px" viewBox="0 0 21 20" version="1.1" xmlns="http://www.w3.org/2000/svg" xmlns:xlink="http://www.w3.org/1999/xlink">
    <!-- Generator: Sketch 41.1 (35376) - http://www.bohemiancoding.com/sketch -->
    <title>list</title>
    <desc>Created with Sketch.</desc>
    <defs>
        <path d="M33,164 L34.6022089,164 L34.6022089,165.586667 L33,165.586667 L33,164 Z M33,168.76 L34.6022089,168.76 L34.6022089,170.346667 L33,170.346667 L33,168.76 Z M33,173.52 L34.6022089,173.52 L34.6022089,175.106667 L33,175.106667 L33,173.52 Z M33,178.28 L34.6022089,178.28 L34.6022089,179.866667 L33,179.866667 L33,178.28 Z M37.0055223,164 L50,164 L50,165.586667 L37.0055223,165.586667 L37.0055223,164 Z M37.0055223,168.76 L50,168.76 L50,170.346667 L37.0055223,170.346667 L37.0055223,168.76 Z M37.0055223,173.52 L50,173.52 L50,175.106667 L37.0055223,175.106667 L37.0055223,173.52 Z M37.0055223,178.28 L50,178.28 L50,179.866667 L37.0055223,179.866667 L37.0055223,178.28 Z" id="path-1"></path>
        <filter x="-50%" y="-50%" width="200%" height="200%" filterUnits="objectBoundingBox" id="filter-2">
            <feOffset dx="0" dy="0" in="SourceAlpha" result="shadowOffsetOuter1"></feOffset>
            <feGaussianBlur stdDeviation="1" in="shadowOffsetOuter1" result="shadowBlurOuter1"></feGaussianBlur>
            <feColorMatrix values="0 0 0 0 0   0 0 0 0 0   0 0 0 0 0  0 0 0 0.1 0" type="matrix" in="shadowBlurOuter1"></feColorMatrix>
        </filter>
    </defs>
    <g id="Page-1" stroke="none" stroke-width="1" fill="none" fill-rule="evenodd" opacity="0.300000012">
        <g id="portal_home" transform="translate(-31.000000, -162.000000)">
            <g id="nav">
                <g id="Group-2">
                    <g id="list">
                        <use fill="black" fill-opacity="1" filter="url(#filter-2)" xlink:href="#path-1"></use>
                        <use fill="#FFFFFF" fill-rule="evenodd" xlink:href="#path-1"></use>
                    </g>
                </g>
            </g>
        </g>
    </g>
</svg>