<?xml version="1.0" encoding="UTF-8"?>
<svg width="19px" height="18px" viewBox="0 0 19 18" version="1.1" xmlns="http://www.w3.org/2000/svg" xmlns:xlink="http://www.w3.org/1999/xlink">
    <!-- Generator: Sketch 41.1 (35376) - http://www.bohemiancoding.com/sketch -->
    <title>nortification</title>
    <desc>Created with Sketch.</desc>
    <defs></defs>
    <g id="Page-1" stroke="none" stroke-width="1" fill="none" fill-rule="evenodd">
        <g id="portal_home" transform="translate(-1116.000000, -26.000000)" fill="#7D818A">
            <g id="top-bar">
                <path d="M1116,31.9135427 L1116,38.810654 L1120.62011,38.810654 L1125.67273,43.2765336 L1125.67273,26.7234664 L1120.62011,31.9135427 L1116,31.9135427 Z M1130.50909,35 C1130.50909,33.3315888 1129.12727,31.9404414 1127.74545,31.6211052 L1127.74545,38.3795846 C1129.12727,38.0595586 1130.50909,36.6684112 1130.50909,35 Z M1127.74545,27.9349512 C1131.37273,28.5557361 1133.64247,31.860435 1133.64247,35 C1133.64247,38.1395651 1131.37273,41.3474978 1127.74545,42.1476705 L1127.74545,43.5 C1131.89091,42.8364979 1135,39.2831061 1135,35 C1135,30.7168939 1131.89091,27.1635021 1127.74545,26.5 L1127.74545,27.9349512 Z" id="nortification"></path>
            </g>
        </g>
    </g>
</svg>