<?xml version="1.0" encoding="UTF-8"?>
<svg width="18px" height="18px" viewBox="0 0 18 18" version="1.1" xmlns="http://www.w3.org/2000/svg" xmlns:xlink="http://www.w3.org/1999/xlink">
    <!-- Generator: Sketch 41.1 (35376) - http://www.bohemiancoding.com/sketch -->
    <title>search</title>
    <desc>Created with Sketch.</desc>
    <defs></defs>
    <g id="Page-1" stroke="none" stroke-width="1" fill="none" fill-rule="evenodd">
        <g id="portal_home" transform="translate(-527.000000, -27.000000)" fill="#7D818A">
            <g id="top-bar">
                <g id="search" transform="translate(370.000000, 18.000000)">
                    <path d="M170.601873,21.0462948 L170.342427,21.305741 L169.372801,20.3361156 C170.341694,19.1392915 170.925081,17.6185261 170.925081,15.9621743 C170.925081,12.1232492 167.801466,8.99963355 163.962541,8.99963355 C160.123616,8.99963355 157,12.1232492 157,15.9621743 C157,19.8010993 160.123616,22.924715 163.962541,22.924715 C165.618893,22.924715 167.139658,22.3413274 168.336482,21.3724349 L169.306107,22.3420603 L169.046661,22.6015065 L173.445521,27.0003664 L175,25.4458876 L170.601873,21.0462948 Z M163.963274,21.1088338 C161.013874,21.1088338 158.614195,18.7999632 158.614195,15.9621743 C158.614195,13.1243854 161.013874,10.8155147 163.963274,10.8155147 C166.912673,10.8155147 169.312352,13.1243854 169.312352,15.9621743 C169.312352,18.7999632 166.91185,21.1088338 163.963274,21.1088338 Z"></path>
                </g>
            </g>
        </g>
    </g>
</svg>