<?xml version="1.0" encoding="UTF-8"?>
<svg width="19px" height="20px" viewBox="0 0 19 20" version="1.1" xmlns="http://www.w3.org/2000/svg" xmlns:xlink="http://www.w3.org/1999/xlink">
    <!-- Generator: Sketch 41.1 (35376) - http://www.bohemiancoding.com/sketch -->
    <title>setting</title>
    <desc>Created with Sketch.</desc>
    <defs></defs>
    <g id="Page-1" stroke="none" stroke-width="1" fill="none" fill-rule="evenodd">
        <g id="portal_home" transform="translate(-1170.000000, -25.000000)" fill="#7D818A">
            <g id="top-bar">
                <path d="M1186.32543,35.9323746 C1186.36349,35.6279258 1186.39203,35.3234769 1186.39203,35 C1186.39203,34.6765231 1186.36349,34.3720742 1186.32543,34.0676254 L1188.33289,32.497811 C1188.51366,32.3551006 1188.56123,32.0982219 1188.44706,31.8889133 L1186.54426,28.5970601 C1186.43009,28.3877515 1186.17321,28.3116393 1185.9639,28.3877515 L1183.59491,29.3391542 C1183.10018,28.9585931 1182.56739,28.6446302 1181.98704,28.4067796 L1181.6255,25.8855625 C1181.59696,25.6572259 1181.39717,25.4859734 1181.15932,25.4859734 L1177.35371,25.4859734 C1177.11586,25.4859734 1176.91606,25.6572259 1176.88752,25.8855625 L1176.52599,28.4067796 C1175.94563,28.6446302 1175.41285,28.9681071 1174.91812,29.3391542 L1172.54912,28.3877515 C1172.3303,28.3021253 1172.08294,28.3877515 1171.96877,28.5970601 L1170.06596,31.8889133 C1169.94228,32.0982219 1169.99936,32.3551006 1170.18013,32.497811 L1172.18759,34.0676254 C1172.14953,34.3720742 1172.12099,34.6860371 1172.12099,35 C1172.12099,35.3139629 1172.14953,35.6279258 1172.18759,35.9323746 L1170.18013,37.502189 C1169.99936,37.6448994 1169.95179,37.9017781 1170.06596,38.1110867 L1171.96877,41.4029399 C1172.08294,41.6122485 1172.33981,41.6883607 1172.54912,41.6122485 L1174.91812,40.6608458 C1175.41285,41.0414069 1175.94563,41.3553698 1176.52599,41.5932204 L1176.88752,44.1144375 C1176.91606,44.3427741 1177.11586,44.5140266 1177.35371,44.5140266 L1181.15932,44.5140266 C1181.39717,44.5140266 1181.59696,44.3427741 1181.6255,44.1144375 L1181.98704,41.5932204 C1182.56739,41.3553698 1183.10018,41.0318929 1183.59491,40.6608458 L1185.9639,41.6122485 C1186.18272,41.6978747 1186.43009,41.6122485 1186.54426,41.4029399 L1188.44706,38.1110867 C1188.56123,37.9017781 1188.51366,37.6448994 1188.33289,37.502189 L1186.32543,35.9323746 L1186.32543,35.9323746 Z M1179.25651,38.3299093 C1177.4203,38.3299093 1175.9266,36.8362071 1175.9266,35 C1175.9266,33.1637929 1177.4203,31.6700907 1179.25651,31.6700907 C1181.09272,31.6700907 1182.58642,33.1637929 1182.58642,35 C1182.58642,36.8362071 1181.09272,38.3299093 1179.25651,38.3299093 L1179.25651,38.3299093 Z" id="setting"></path>
            </g>
        </g>
    </g>
</svg>